<?xml version="1.0" encoding="UTF-8"?>
<svg id="Layer_1" xmlns="http://www.w3.org/2000/svg" version="1.1" viewBox="0 0 1500 2024">
  <!-- Generator: Adobe Illustrator 29.8.1, SVG Export Plug-In . SVG Version: 2.1.1 Build 2)  -->
  <defs>
    <style>
      .st0 {
        fill: #3b474d;
      }
    </style>
  </defs>
  <path class="st0" d="M1240.73,345.1c-1.29-11.24-12.38-15.85-21.18-20.08-93.14-44.76-214-78.97-316.26-91.09-53.31-6.32-107.16-14.16-160.7-18.39l-71.19.88c-28.78,3.36-56.42-.56-84.88,6.42-8.59,2.11-18.89,6.02-20.81,16.06-3.06,15.96-.91,52.96,4.77,67.99,1.79,4.73,5.51,7.99,10.61,8.71,8.28,1.15,17.89,1.1,26.27,1.83,1.1.1,3.46.26,3.94,1.52l53.41,424.64c-.4,1.17-1.43,1.54-2.47,1.92-9.26,3.36-20.58,5.3-30.25,8.38-44.67,14.21-88.79,30.59-133.06,46.03-68.35,23.84-138.57,46.78-197.43,90.53-7.92,5.89-22.17,16.1-24.26,25.78-2.93,13.57-5.58,38.64-5.57,52.38.01,12.45,11.94,20.26,20.86,26.37,15.24,10.44,31.76,17.46,46.91,26.84,24.71,15.3,12.73,39.64,8.71,62.81-21.04,121.18-41.14,243.34-59.94,365.03-.89,5.75-3.63,13.69-4.27,19.43-.42,3.71-.58,27.18.38,29.33.52,1.15,6.06,4.8,7.24,5.1,3.36.85,4.46-.61,6.21-3.04,9.69-13.41,12.28-48.93,15.31-66.35,6.33-36.34,13.3-73.31,18.18-110.01,2.02-15.22.74-27.42,8.02-42.03,8.49-17.03,21.5-22.33,35.8-32.68,11.89-8.6,23.46-17.68,35.69-25.83l358.82,181.07,4.84,3.94c-.26,6.95,1.62,14.07,1.96,20.87,2.63,53.91-.57,108.51,1.71,162.49,2.59,61.45,1.32,124.2,5.31,185.23.72,10.93-2.41,23.54,8.78,30.73,6.12,3.93,13.91,1.34,14.92-6.07,2.2-16.11-.56-41.16-.95-57.96-1.54-65.66-4.44-131.14-6.15-196.68-.33-12.63-1.95-27.11,5.31-37.8,7.09-10.43,28.34-28.54,38.2-39.06,66.52-70.97,133.79-141.49,199.28-213.37,3.2-3.51,5.27-8.28,9.65-10.54.69.91,1.07,2.89,1.21,4.04,6.69,54.73,17.43,109.15,22.93,164.09.5,4.96,1.44,19.45,3.48,22.86,4.82,8.03,16.22,4.87,18.07-3.92,2.05-9.77-1.09-22.41-2.24-32.1-2.54-21.44-6.41-42.82-9.55-64.21-15.93-108.52-29.88-216.86-44.98-325.56-1.86-13.39-9.11-41.72-4.07-53.43,1.99-4.63,6.11-9.18,8.35-14.48,9.82-23.25,2.21-36.16,3.73-58.61.7-10.42,3.76-23.79,6.36-34.03,11.68-46.08,27.13-91.6,39.95-137.41,22.99-82.19,44.56-165.51,68.43-247.67,4.5-15.47,7.07-31.66,15.32-45.73,11.72,1.55,33.13,8.44,42.01-2.3,1.95-2.35,5.04-8.92,6.47-11.97,8.57-18.23,15.17-40.58,12.83-60.93ZM1042.8,371.04c2.63-3.23,4.03-.17,6.37.59,13.23,4.32,26.36,8.87,39.64,13.03,5.31,3.14.69,6.63.1,10.55-8.25,54.69-21.57,108.64-33.47,162.34-18.02,81.37-32.97,163.64-51.69,245.09-1.06,4.62-1.57,12.08-2.73,16.59-.69,2.69-7.22,21.24-8.33,21.55l-23.89-10.73c-2.93-2.89.93-10.06,1.48-13.48,6.72-41.71,12.8-83.61,19.59-125.29,16.82-103.2,33.3-206.42,51.54-309.34.62-3.51-1.09-7.83,1.4-10.9ZM969.9,351.68c1.63-2.19,11.54,2.52,14.28,3.29,6.38,1.8,12.82,3.67,19.29,5.29,3.94.99,8.76.63,13.17,2.63,8.02,3.62,1.94,15.29,1.18,20.92-4.04,29.9-7.75,59.63-12.44,89.41-11.29,71.72-25.73,143.33-36.72,215.28-6.35,41.59-10.7,83.16-19.78,124.22-.29,1.3-1.57,5.69-2.78,6.06l-27.45-11.46c.05-4.43-.47-9.05-.05-13.47.15-1.6,1.51-2.88,1.66-4.49,13.07-139.17,32.73-278.1,47.38-417.11.46-4.34-.13-17.36,2.26-20.57ZM889.57,501.39c3.73-49.44,4.92-99.16,9.58-148.47.48-5.06-.79-10.37,1.08-15.17l47.6,7.94,1.33,1.3c.57,4.6-.44,9.16-.97,13.71-6.37,54.84-13.54,109.68-19.88,164.51-3.61,31.25-6.16,62.69-9.76,93.85-6.48,56.14-12.93,112.11-21.01,167.77-.5,3.46,1.33,11.86-3.97,11.88-.91,0-15.37-4.84-17.29-5.63-1.25-.51-4.61-1.79-5-2.9.3-14.23-.8-28.74-.15-42.94.14-3.15,1.6-5.84,1.78-8.76,3.31-55.12,5.2-110.12,9.67-165.06,1.96-24.03,5.18-47.95,7-72.02ZM819.32,746.35c.15-3.62,1.58-7.83,1.78-11.39,3.54-63.64,5.76-127.56,7.95-191.37,1.97-57.31,4.15-114.8,6.15-172.1.29-8.31-1.63-35.31,1.35-40.79.48-.89,1.79-2.35,2.74-2.56.63-.14,11.25.66,12.88.85,3.98.45,8.04,1.95,11.6,2.45,4.95.7,13.52-2.09,14.46,4.86.74,5.52.43,18.79-.06,24.62-1.46,17.55-3.86,34.97-5.27,52.69-3.11,39.26-6.67,79.16-8.75,118.57-1.89,35.8-2.5,71.47-5.27,107.12-3.28,42.24-5.08,85.16-9.68,127.3-.36,3.26-1.1,11.32-1.89,13.91-1.1,3.57-5.51-.55-7.51-.98-4.36-.92-6.97-1.19-11.6-2.45-2.78-.76-6.23.45-8.01-2.52-1.47-2.46-1.05-23.63-.86-28.19ZM771.54,1201.63l-2.55,1.72-72.47-33.81-2.7-2.58c-.22-.97.59-1.76,1.44-2.03,3.95-1.26,15.02,3.6,19.55,4.75,10.72,2.74,21.42,4.75,31.9,7.61,5.64,1.54,12.7,3.13,17.97,4.86,7.69,2.52,6.17,12.94,6.85,19.49ZM710.01,313.01c7.66-.96,13.58,1.37,20.24,1.79,5.4.34,19.38-1.15,23.2,1.38.5.33,1.81,2.23,1.81,2.58v438.16c-.21.69-1.4,1.32-2.21,1.38-1.13.09-19.87-8.35-20.53-9.37-1.8-7.25-1.32-15.14-1.93-22.65-2.96-36.11-6.77-72.65-8.72-108.94-4.05-75.75-6.25-151.55-9.66-227.42-.35-7.86.88-17.04.04-24.63-1.64-14.85-3.9-28.63-4.36-43.94-.11-3.81-3.2-7.68,2.11-8.35ZM652.49,468.98c-6.19-48.83-14.29-98.24-18.44-147.51-.11-1.33-2.93-6.66-.37-6.66h53.55c2.46,2.66,1.02,7.37,1.33,10.97,4.08,48.69,4.55,97.94,7.05,146.62,2.47,48.25,4.96,96.56,7.03,144.88.64,14.94.77,25.54,2.49,40.53,3.23,28.21,3.05,56.54,2.79,85.11l-1.36,3.03c-5.37-.63-12.46.85-17.56,0-4.01-.67-2.68-11.19-3.14-14.42-12.52-87.44-22.25-174.93-33.36-262.54ZM344.73,1241.95l-2.06-1.24,33.34-194.96,148.38,62.85c.05,4.18-4.33,4.66-6.96,6.64-57.15,42.82-115.1,84.58-172.69,126.72ZM774.62,1341.68c.07,9.79.69,24.99-.92,34.29-.18,1.03-.45,1.57-1.31,2.17-75.55-38.53-152.15-75.07-227.5-114-32.86-16.98-67.25-34.4-99.4-52.48-7.86-4.42-11.68-5.36-3.16-12.6,23.13-19.67,53.69-41.06,78.6-59.24,3.28-2.39,14.92-11.41,17.54-12.31,6.68-2.28,18.71,4.25,25.31,7.1,10.73,4.64,26.98,11.27,36.73,16.83,3.1,1.77,3.5,3.33,3.81,6.72,1.73,19.04-2.28,42.01-.07,60.66,1.93,16.28,13.43,9.33,19.33-.04.53-.84,3.53-5.78,3.53-6.13v-45.66c.16-.55,1.38-1.46,2.15-1.32l142.75,64.5c1.31,1.87,1.54,3.96,1.74,6.16,2.74,29.83-.25,67.59-.07,98.41.01,2.28.94,4.44.96,6.95ZM776.34,758.68v-440.35c3.68-.73,6.67,1.38,10.09,1.76,7.31.81,14.53.98,21.85,1.85,1.76.21,3.89.65,5.38,1.65,2.36,2.27,1.17,22.08,1.27,26.82.85,39.82-1.17,80.51-2.56,120.3-1.96,56.23-5.21,112.39-7.96,168.53-1.91,39.06-.8,78.77-4.39,117.66-.16,1.73-1.91,10.76-3.19,11.05-3.77-.25-20.5-5.44-20.5-9.28ZM834.66,1442.2c-3.02,4.51-8.45,10.48-12.19,14.62-4.3,4.76-14.3,14.69-19.32,17.97-5.55,3.63-2.9-5.69-3.13-9.26-.95-15.27-6.17-30.33,1.34-45.23l34.29,18.43c.71,1.33-.33,2.46-1,3.47ZM954.24,1318.14l-96.29,100.86-4.85-.41c-15.18-9.35-35.75-14.97-50.65-23.97-2.86-1.73-4.67-3.85-5.07-7.22-1.45-12.25.45-28.45.06-41.33-1-32.9-5.13-67.05-2.71-100.1.12-1.65.38-3.2.99-4.72,1.1-.75,6.14,1.59,7.72,2.24,30.82,12.71,61.64,26.89,92.2,40.37,20.96,9.25,41.98,18.6,62.42,28.89l-3.82,5.39ZM1046.61,1197.82c.64,5.03.86,15.22-1,19.86l-66.42,74.06-5.56,1.05c-59.74-25.29-119.26-51.05-177.78-79.03-2.13-2.07-.92-17.98-.69-21.81l30.27-11c42.56-24.45,81.5-62.44,115.11-98.25,21.95-23.39,38.78-49.41,59.21-73.35,2.72-3.18,12.16-14.06,14.89-15.83,1.08-.7,1.75-1.09,3.11-.83-1.41,6.32,1.85,11.59,2.54,17.21,7.76,62.88,18.37,125.19,26.32,187.92ZM1153.15,428.73c-13.14,54.14-29.52,107.11-44.75,160.71-21.93,77.17-44.32,155.83-66.53,232.87-2.72,9.44-4.65,20.74-7.85,29.9-.58,1.66-2.66,6.99-4.37,7.01-1.59.02-13.34-6.43-14.14-7.93-.81-3.09,1.72-6.09,2.17-9.28,4.08-28.86,10.95-56.63,16.96-84.9,17.79-83.75,34.22-167.21,51.8-251.13,7.13-34.04,13.27-69.03,23.27-102.29.91-3.03.19-7.51,3.42-9.82l41.17,16.61c4.69,4.24,0,13.55-1.14,18.24Z"/>
</svg>